<?xml version="1.0" encoding="UTF-8" standalone="no" ?>
<!DOCTYPE svg PUBLIC "-//W3C//DTD SVG 1.1//EN" "http://www.w3.org/Graphics/SVG/1.1/DTD/svg11.dtd">
<svg xmlns="http://www.w3.org/2000/svg" xmlns:xlink="http://www.w3.org/1999/xlink" version="1.1" width="1080" height="1080" viewBox="0 0 1080 1080" xml:space="preserve">
<desc>Created with Fabric.js 4.2.0</desc>
<defs>
</defs>
<rect x="0" y="0" width="100%" height="100%" fill="transparent"></rect>
<g transform="matrix(1 0 0 1 540 540)" id="61c0ce9d-6a60-4198-b5d4-6053bd4203d9"  >
<rect style="stroke: none; stroke-width: 1; stroke-dasharray: none; stroke-linecap: butt; stroke-dashoffset: 0; stroke-linejoin: miter; stroke-miterlimit: 4; fill: rgb(255,255,255); fill-opacity: 0; fill-rule: nonzero; opacity: 1;" vector-effect="non-scaling-stroke"  x="-540" y="-540" rx="0" ry="0" width="1080" height="1080" />
</g>
<g transform="matrix(Infinity NaN NaN Infinity 0 0)" id="12d8fbff-fab7-43fe-8ea8-e5ab8a889490"  >
</g>
<g transform="matrix(1.4 0 0 1.4 536.16 542.4)"  >
<g style="" vector-effect="non-scaling-stroke"   >
		<g transform="matrix(1 0 0 1 284.7 56.47)"  >
<path style="stroke: none; stroke-width: 1; stroke-dasharray: none; stroke-linecap: butt; stroke-dashoffset: 0; stroke-linejoin: miter; stroke-miterlimit: 4; fill: rgb(160,97,106); fill-rule: nonzero; opacity: 1;" vector-effect="non-scaling-stroke"  transform=" translate(-884.69, -506.47)" d="M 875.74982 529.19691 C 874.1935086115075 526.6603425604792 873.8406716495955 523.5647080030327 874.7862502861586 520.7429779388232 C 875.7318289227217 517.9212478746136 877.8786909729508 515.6632774203707 880.64916 514.57664 L 879.2277600000001 478.87008 L 895.1244900000002 488.46839 L 894.0371400000001 520.90439 C 895.5881758639998 525.7867929842284 893.2423247486806 531.0576550609544 888.5767413622789 533.1732880197515 C 883.9111579758772 535.2889209785485 878.4005625449967 533.5806052921864 875.7498200000001 529.19687 Z" stroke-linecap="round" />
</g>
		<g transform="matrix(1 0 0 1 270.15 2.88)"  >
<path style="stroke: none; stroke-width: 1; stroke-dasharray: none; stroke-linecap: butt; stroke-dashoffset: 0; stroke-linejoin: miter; stroke-miterlimit: 4; fill: rgb(3,169,243); fill-rule: nonzero; opacity: 1;" vector-effect="non-scaling-stroke"  transform=" translate(-870.14, -452.88)" d="M 896.96714 506.04938 L 882.8347299999999 508.30737999999997 C 881.6359464670708 508.49879535215024 880.4106787848207 508.1977256597025 879.4371229610964 507.47252854584053 C 878.4635671373723 506.7473314319786 877.8243264625472 505.6595376957738 877.6645399999999 504.45613 L 871.6853899999999 459.42663 L 842.1405699999999 418.99496 C 839.9293931171547 415.9683397029616 839.0676136476043 412.1623409871649 839.759346324749 408.47842465626866 C 840.4510790018938 404.7945083253724 842.634793030194 401.56036498881633 845.7932699999999 399.54201 L 845.7922699999999 399.54192 C 852.1114051177206 395.5037438692816 860.5076630270513 397.3528045917848 864.5458699999999 403.67192 L 894.72025 450.89013 L 900.72595 501.07122 C 900.7644977157714 501.39146265278356 900.7689124928468 501.71489451771185 900.73912 502.03607 C 900.54771259608 504.07910778499473 898.9944001110532 505.731800675541 896.96714 506.04938 Z" stroke-linecap="round" />
</g>
		<g transform="matrix(1 0 0 1 239.2 199.53)"  >
<polygon style="stroke: none; stroke-width: 1; stroke-dasharray: none; stroke-linecap: butt; stroke-dashoffset: 0; stroke-linejoin: miter; stroke-miterlimit: 4; fill: rgb(160,97,106); fill-rule: nonzero; opacity: 1;" vector-effect="non-scaling-stroke"  points="9.04,23.64 -3.22,23.64 -9.05,-23.64 9.05,-23.64 9.04,23.64 " />
</g>
		<g transform="matrix(1 0 0 1 231.61 227.12)"  >
<path style="stroke: none; stroke-width: 1; stroke-dasharray: none; stroke-linecap: butt; stroke-dashoffset: 0; stroke-linejoin: miter; stroke-miterlimit: 4; fill: rgb(47,46,65); fill-rule: nonzero; opacity: 1;" vector-effect="non-scaling-stroke"  transform=" translate(-610.09, -463.8)" d="M 605.70782 456.35988 L 629.35169 456.35988 L 629.35169 471.24674999999996 L 590.821 471.24674999999996 L 590.821 471.24674999999996 C 590.8209944771307 463.0249759648398 597.4860459648677 456.3599020913567 605.70782 456.35988 Z" stroke-linecap="round" />
</g>
		<g transform="matrix(1 0 0 1 278.31 188.61)"  >
<polygon style="stroke: none; stroke-width: 1; stroke-dasharray: none; stroke-linecap: butt; stroke-dashoffset: 0; stroke-linejoin: miter; stroke-miterlimit: 4; fill: rgb(160,97,106); fill-rule: nonzero; opacity: 1;" vector-effect="non-scaling-stroke"  points="21.65,13.59 12.49,21.74 -21.65,-11.93 -9.78,-21.74 21.65,13.59 " />
</g>
		<g transform="matrix(0.75 -0.66 0.66 0.75 290.16 216.2)"  >
<path style="stroke: none; stroke-width: 1; stroke-dasharray: none; stroke-linecap: butt; stroke-dashoffset: 0; stroke-linejoin: miter; stroke-miterlimit: 4; fill: rgb(47,46,65); fill-rule: nonzero; opacity: 1;" vector-effect="non-scaling-stroke"  transform=" translate(-890.16, -666.2)" d="M 885.77919 658.75819 L 909.42306 658.75819 L 909.42306 673.6450600000001 L 870.89234 673.6450600000001 L 870.89234 673.6450600000001 C 870.8923373478342 669.6968192460671 872.4607673368571 665.910287100719 875.2525932723564 663.1184574144921 C 878.0444192078558 660.3266277282652 881.830949246067 658.758192652164 885.77919 658.75819 Z" stroke-linecap="round" />
</g>
		<g transform="matrix(1 0 0 1 144.43 -31.73)"  >
<path style="stroke: none; stroke-width: 1; stroke-dasharray: none; stroke-linecap: butt; stroke-dashoffset: 0; stroke-linejoin: miter; stroke-miterlimit: 4; fill: rgb(160,97,106); fill-rule: nonzero; opacity: 1;" vector-effect="non-scaling-stroke"  transform=" translate(-744.43, -418.27)" d="M 725.04291 402.777 C 727.9412072976827 402.10161355760806 730.9897983020448 402.74467937810573 733.3683703135719 404.53316176781567 C 735.7469423250988 406.32164415752567 737.2111626776465 409.0718258825313 737.36704 412.04368999999997 L 771.69443 421.97389 L 757.56616 434.02488999999997 L 727.1343 422.7474 C 722.0119267847853 422.6768064673531 717.7519097589922 418.7861200370204 717.2183393301041 413.6911231380795 C 716.6847689012159 408.5961262391385 720.0462994057159 403.90727791289277 725.04291 402.77698000000004 Z" stroke-linecap="round" />
</g>
		<g transform="matrix(1 0 0 1 232.07 -106.05)"  >
<circle style="stroke: none; stroke-width: 1; stroke-dasharray: none; stroke-linecap: butt; stroke-dashoffset: 0; stroke-linejoin: miter; stroke-miterlimit: 4; fill: rgb(160,97,106); fill-rule: nonzero; opacity: 1;" vector-effect="non-scaling-stroke"  cx="0" cy="0" r="24.56103" />
</g>
		<g transform="matrix(1 0 0 1 245.29 134.87)"  >
<path style="stroke: none; stroke-width: 1; stroke-dasharray: none; stroke-linecap: butt; stroke-dashoffset: 0; stroke-linejoin: miter; stroke-miterlimit: 4; fill: rgb(47,46,65); fill-rule: nonzero; opacity: 1;" vector-effect="non-scaling-stroke"  transform=" translate(-845.29, -584.87)" d="M 849.74968 664.32848 L 832.686 662.96324 C 830.4036063824447 662.781866953772 828.6217947666744 660.9147075488062 828.54733 658.62633 L 823.78463 514.7933300000001 C 823.7035900061725 512.4911629987555 825.3781862654786 510.5012661704557 827.66036 510.18786000000006 L 861.6801399999999 505.44079000000005 C 863.1017224698907 505.24228191456734 864.5327111645953 505.7339244143177 865.5321194918524 506.7642084402502 C 866.5315278191097 507.7944924661826 866.9794164801699 509.2397733175146 866.73776 510.65466000000004 L 853.71969 586.9036600000001 C 853.6839138842771 587.1133068528421 853.6672454683556 587.3257689085536 853.66989 587.5384300000001 L 854.6083600000001 659.7835500000001 C 854.6239870479075 660.9876835024619 854.1564576890968 662.1478668250272 853.3102972934222 663.0047182013867 C 852.4641368977476 663.8615695777461 851.3099147936574 664.3436280573295 850.10568 664.3431200000001 C 849.98723 664.34313 849.86833 664.33824 849.74968 664.32848 Z" stroke-linecap="round" />
</g>
		<g transform="matrix(1 0 0 1 253.05 126.75)"  >
<path style="stroke: none; stroke-width: 1; stroke-dasharray: none; stroke-linecap: butt; stroke-dashoffset: 0; stroke-linejoin: miter; stroke-miterlimit: 4; fill: rgb(47,46,65); fill-rule: nonzero; opacity: 1;" vector-effect="non-scaling-stroke"  transform=" translate(-853.05, -576.75)" d="M 871.60368 647.0775 L 812.98454 581.83922 C 812.1321705469787 580.8898737019937 811.7224304602894 579.6235622678963 811.8571000000001 578.35484 L 819.2604200000001 508.94957 C 819.5131247948037 506.54563875320144 821.6225178942369 504.7725118162965 824.0341000000001 504.93688 L 860.00993 507.33531 C 861.4038619515379 507.4282385899863 862.6755706152995 508.163320912051 863.4518362993389 509.3248257963015 C 864.2281019833783 510.48633068055204 864.4208674140781 511.9425004626948 863.97356 513.26598 L 842.4183800000001 577.03356 C 841.996462231348 578.2729445238484 842.3043038012496 579.6442282572576 843.2155 580.58434 L 893.00823 632.18785 C 893.9643224910778 633.1787263523942 894.414161373742 634.5527848959968 894.2291546326688 635.9172339800547 C 894.0441478915957 637.2816830641127 893.244658352187 638.4863441691459 892.0592300000001 639.18685 L 877.2401400000001 647.9436800000001 C 875.3939900808765 649.0300026198995 873.0384328623156 648.668002361176 871.6036600000001 647.0774700000001 Z" stroke-linecap="round" />
</g>
		<g transform="matrix(1 0 0 1 244.67 -4.21)"  >
<path style="stroke: none; stroke-width: 1; stroke-dasharray: none; stroke-linecap: butt; stroke-dashoffset: 0; stroke-linejoin: miter; stroke-miterlimit: 4; fill: rgb(3,169,243); fill-rule: nonzero; opacity: 1;" vector-effect="non-scaling-stroke"  transform=" translate(-844.67, -445.79)" d="M 827.66521 383.68 C 827.66521 383.68 842.66521 370.68 849.66521 377.68 C 849.66521 377.68 882.16521 398.18 868.16521 454.18 C 868.16521 454.18 880.16521 508.18 875.16521 510.18 C 870.16521 512.1800000000001 819.66521 519.6800000000001 815.66521 513.6800000000001 C 811.66521 507.68000000000006 809.66521 415.68 827.66521 383.68 Z" stroke-linecap="round" />
</g>
		<g transform="matrix(1 0 0 1 199.09 -24.72)"  >
<path style="stroke: none; stroke-width: 1; stroke-dasharray: none; stroke-linecap: butt; stroke-dashoffset: 0; stroke-linejoin: miter; stroke-miterlimit: 4; fill: rgb(3,169,243); fill-rule: nonzero; opacity: 1;" vector-effect="non-scaling-stroke"  transform=" translate(-799.09, -425.28)" d="M 740.30326 430.21974 L 742.62498 416.09765 C 742.8220254529431 414.89977572068796 743.4947089157407 413.83233511077503 744.4902980381681 413.1376898783959 C 745.4858871605956 412.4430446460168 746.7199091130293 412.18013341056945 747.91218 412.40864999999997 L 792.52486 420.95935 L 840.219 405.69863 C 843.7891148849457 404.55669694397363 847.6724639819854 404.94126028487125 850.9492647332053 406.76123507397153 C 854.2260654844251 408.5812098630718 856.6048405069787 411.67470603483554 857.5221700000001 415.30902 L 857.5225700000001 415.30812999999995 C 859.3579286127929 422.5792853084478 854.9513803501014 429.96158212762026 847.6802400000001 431.79699999999997 L 793.3482400000001 445.51138999999995 L 743.8393400000001 435.35862 C 743.5233202074058 435.29403744248566 743.2150566393343 435.1960608486666 742.9197400000002 435.06633999999997 C 741.0416960843193 434.23943090000057 739.9642109362641 432.2435664108534 740.30326 430.21974 Z" stroke-linecap="round" />
</g>
		<g transform="matrix(1 0 0 1 239.85 -113.83)"  >
<path style="stroke: none; stroke-width: 1; stroke-dasharray: none; stroke-linecap: butt; stroke-dashoffset: 0; stroke-linejoin: miter; stroke-miterlimit: 4; fill: rgb(47,46,65); fill-rule: nonzero; opacity: 1;" vector-effect="non-scaling-stroke"  transform=" translate(-839.85, -336.17)" d="M 842.60633 363.87051 C 844.85083 358.67595 846.7501199999999 351.75799 842.4450999999999 348.08537 C 839.9479799999999 345.95508 836.3512599999999 345.95069 833.0796399999999 345.68566 C 823.8623299999999 344.93897 814.37411 340.69795 809.8688699999999 332.6221 C 805.3636299999998 324.54625 807.8796399999999 312.53767999999997 816.3790999999999 308.8941 C 822.1083299999999 306.43809999999996 828.6765299999998 308.11118999999997 834.6735399999999 309.81176999999997 L 852.6793399999999 314.91769999999997 C 858.0293899999999 316.43481999999995 863.6467099999999 318.10794999999996 867.4982899999999 322.11918 C 873.6409799999999 328.51647999999994 873.1817999999998 339.33085 868.3028799999998 346.73717999999997 C 863.4239599999999 354.14350999999994 856.07654 361.868 847.66521 364.68 Z" stroke-linecap="round" />
</g>
		<g transform="matrix(1 0 0 1 253.48 235.68)"  >
<path style="stroke: none; stroke-width: 1; stroke-dasharray: none; stroke-linecap: butt; stroke-dashoffset: 0; stroke-linejoin: miter; stroke-miterlimit: 4; fill: rgb(63,61,86); fill-rule: nonzero; opacity: 1;" vector-effect="non-scaling-stroke"  transform=" translate(-853.48, -685.68)" d="M 977.48017 686.68 L 729.48017 686.68 C 728.9278852501692 686.68 728.48017 686.2322847498308 728.48017 685.68 C 728.48017 685.1277152501691 728.9278852501692 684.68 729.48017 684.68 L 977.48017 684.68 C 978.0324547498309 684.68 978.48017 685.1277152501691 978.48017 685.68 C 978.48017 686.2322847498308 978.0324547498309 686.68 977.48017 686.68 Z" stroke-linecap="round" />
</g>
		<g transform="matrix(1 0 0 1 -127.98 -49.68)"  >
<path style="stroke: none; stroke-width: 1; stroke-dasharray: none; stroke-linecap: butt; stroke-dashoffset: 0; stroke-linejoin: miter; stroke-miterlimit: 4; fill: rgb(63,61,86); fill-rule: nonzero; opacity: 1;" vector-effect="non-scaling-stroke"  transform=" translate(-472.02, -400.32)" d="M 715.51983 213.32 L 228.51982999999996 213.32 C 224.65561414977716 213.32428765573172 221.5241176557317 216.4557841497772 221.51982999999996 220.32 L 221.51982999999996 580.3199999999999 C 221.5241176557317 584.1842158502227 224.65561414977716 587.3157123442683 228.51982999999996 587.3199999999999 L 715.51983 587.3199999999999 C 719.3840458502227 587.3157123442683 722.5155423442683 584.1842158502227 722.51983 580.3199999999999 L 722.51983 220.31999999999994 C 722.5155423442682 216.45578414977717 719.3840458502227 213.32428765573172 715.51983 213.32 Z M 720.51983 580.3199999999999 C 720.5187262755254 583.0809664422756 718.2807964422756 585.3188962755254 715.51983 585.3199999999999 L 228.51982999999996 585.3199999999999 C 225.7588635577243 585.3188962755254 223.52093372447453 583.0809664422756 223.51982999999996 580.3199999999999 L 223.51982999999996 220.31999999999994 C 223.52093372447453 217.5590335577243 225.7588635577243 215.3211037244745 228.51982999999996 215.31999999999994 L 715.51983 215.31999999999994 C 718.2807964422756 215.3211037244745 720.5187262755254 217.5590335577243 720.51983 220.31999999999994 Z" stroke-linecap="round" />
</g>
		<g transform="matrix(1 0 0 1 -127.98 -207.64)"  >
<rect style="stroke: none; stroke-width: 1; stroke-dasharray: none; stroke-linecap: butt; stroke-dashoffset: 0; stroke-linejoin: miter; stroke-miterlimit: 4; fill: rgb(63,61,86); fill-rule: nonzero; opacity: 1;" vector-effect="non-scaling-stroke"  x="-249.5" y="-1" rx="0" ry="0" width="499" height="2" />
</g>
		<g transform="matrix(1 0 0 1 -360.48 -221.68)"  >
<circle style="stroke: none; stroke-width: 1; stroke-dasharray: none; stroke-linecap: butt; stroke-dashoffset: 0; stroke-linejoin: miter; stroke-miterlimit: 4; fill: rgb(63,61,86); fill-rule: nonzero; opacity: 1;" vector-effect="non-scaling-stroke"  cx="0" cy="0" r="6" />
</g>
		<g transform="matrix(1 0 0 1 -343.23 -221.68)"  >
<circle style="stroke: none; stroke-width: 1; stroke-dasharray: none; stroke-linecap: butt; stroke-dashoffset: 0; stroke-linejoin: miter; stroke-miterlimit: 4; fill: rgb(63,61,86); fill-rule: nonzero; opacity: 1;" vector-effect="non-scaling-stroke"  cx="0" cy="0" r="6" />
</g>
		<g transform="matrix(1 0 0 1 -325.98 -221.68)"  >
<circle style="stroke: none; stroke-width: 1; stroke-dasharray: none; stroke-linecap: butt; stroke-dashoffset: 0; stroke-linejoin: miter; stroke-miterlimit: 4; fill: rgb(63,61,86); fill-rule: nonzero; opacity: 1;" vector-effect="non-scaling-stroke"  cx="0" cy="0" r="6" />
</g>
		<g transform="matrix(1 0 0 1 -76.66 53.12)"  >
<path style="stroke: none; stroke-width: 1; stroke-dasharray: none; stroke-linecap: butt; stroke-dashoffset: 0; stroke-linejoin: miter; stroke-miterlimit: 4; fill: rgb(63,61,86); fill-rule: nonzero; opacity: 1;" vector-effect="non-scaling-stroke"  transform=" translate(-523.34, -503.12)" d="M 523.34267 524.62473 C 522.7903852501692 524.62473 522.34267 524.1770147498308 522.34267 523.62473 L 522.34267 482.62473 C 522.34267 482.0724452501692 522.7903852501692 481.62473 523.34267 481.62473 C 523.8949547498308 481.62473 524.34267 482.0724452501692 524.34267 482.62473 L 524.34267 523.62473 C 524.3426423884052 524.1770033123294 523.8949433123294 524.6247023884052 523.34267 524.62473 Z" stroke-linecap="round" />
</g>
		<g transform="matrix(1 0 0 1 -106.43 -0.93)"  >
<path style="stroke: none; stroke-width: 1; stroke-dasharray: none; stroke-linecap: butt; stroke-dashoffset: 0; stroke-linejoin: miter; stroke-miterlimit: 4; fill: rgb(63,61,86); fill-rule: nonzero; opacity: 1;" vector-effect="non-scaling-stroke"  transform=" translate(-493.57, -449.07)" d="M 521.97182 466.62473 C 521.7952617231676 466.62487280227606 521.6218464893656 466.57802266328173 521.46938 466.48899 L 464.65418999999997 433.38499 C 464.1779362402129 433.10647427039453 464.01715173500816 432.4949146070675 464.2948433957127 432.01817988321767 C 464.5725350564172 431.5414451593678 465.1838157379845 431.3796032387626 465.66103 431.65647 L 522.47621 464.76047 C 522.8668224488329 464.98806975285197 523.0561827930599 465.44940732256293 522.9381125560072 465.885800667842 C 522.8200423189546 466.322194013121 522.4239035908837 466.62511941865 521.9718200000001 466.62472 Z" stroke-linecap="round" />
</g>
		<g transform="matrix(1 0 0 1 -163.25 -0.93)"  >
<path style="stroke: none; stroke-width: 1; stroke-dasharray: none; stroke-linecap: butt; stroke-dashoffset: 0; stroke-linejoin: miter; stroke-miterlimit: 4; fill: rgb(63,61,86); fill-rule: nonzero; opacity: 1;" vector-effect="non-scaling-stroke"  transform=" translate(-436.75, -449.07)" d="M 408.34364 466.62473 C 407.89155640911633 466.62512941865003 407.4954176810454 466.32220401312105 407.3773474439928 465.885810667842 C 407.2592772069402 465.4494173225629 407.4486375511671 464.98807975285195 407.83925 464.76048 L 464.65418999999997 431.65648 C 465.1312516862554 431.3813167512037 465.74099744599556 431.54358430824203 466.01818712673 432.01947142392737 C 466.2953768074645 432.49535853961265 466.13570393742003 433.10578890104637 465.661 433.385 L 408.846 466.489 C 408.6934699560209 466.5778096844264 408.5201408962095 466.62464054932053 408.34364 466.62473 Z" stroke-linecap="round" />
</g>
		<g transform="matrix(1 0 0 1 -47.43 49.07)"  >
<path style="stroke: none; stroke-width: 1; stroke-dasharray: none; stroke-linecap: butt; stroke-dashoffset: 0; stroke-linejoin: miter; stroke-miterlimit: 4; fill: rgb(63,61,86); fill-rule: nonzero; opacity: 1;" vector-effect="non-scaling-stroke"  transform=" translate(-552.57, -499.07)" d="M 580.97182 516.62473 C 580.7952617231676 516.6248728022761 580.6218464893656 516.5780226632817 580.46938 516.48899 L 523.65419 483.38498999999996 C 523.1779362402128 483.1064742703945 523.0171517350082 482.49491460706747 523.2948433957127 482.0181798832176 C 523.5725350564172 481.54144515936775 524.1838157379846 481.37960323876257 524.66103 481.65646999999996 L 581.47621 514.7604699999999 C 581.8668224488329 514.988069752852 582.0561827930597 515.4494073225628 581.9381125560071 515.8858006678419 C 581.8200423189545 516.3221940131209 581.4239035908837 516.6251194186499 580.9718200000001 516.6247199999999 Z" stroke-linecap="round" />
</g>
		<g transform="matrix(1 0 0 1 -104.25 49.07)"  >
<path style="stroke: none; stroke-width: 1; stroke-dasharray: none; stroke-linecap: butt; stroke-dashoffset: 0; stroke-linejoin: miter; stroke-miterlimit: 4; fill: rgb(63,61,86); fill-rule: nonzero; opacity: 1;" vector-effect="non-scaling-stroke"  transform=" translate(-495.75, -499.07)" d="M 467.34364 516.62473 C 466.8915564091164 516.62512941865 466.4954176810455 516.322204013121 466.3773474439929 515.885810667842 C 466.25927720694034 515.449417322563 466.44863755116717 514.9880797528521 466.83925 514.76048 L 523.65419 481.65648000000004 C 524.1312516862548 481.3813167512099 524.7409974459894 481.54358430824976 525.0181871267221 482.019471423932 C 525.2953768074548 482.49535853961424 525.1357039374143 483.1057889010438 524.661 483.385 L 467.84599999999995 516.489 C 467.6934758816006 516.5778238737108 467.52014292271707 516.6246557920746 467.34364 516.62473 Z" stroke-linecap="round" />
</g>
		<g transform="matrix(1 0 0 1 -134.7 -53.57)"  >
<path style="stroke: none; stroke-width: 1; stroke-dasharray: none; stroke-linecap: butt; stroke-dashoffset: 0; stroke-linejoin: miter; stroke-miterlimit: 4; fill: rgb(63,61,86); fill-rule: nonzero; opacity: 1;" vector-effect="non-scaling-stroke"  transform=" translate(-465.3, -396.43)" d="M 465.34267 415.62473 C 464.791304228323 415.6248196787984 464.3439328223935 415.17854433281354 464.34267 414.62718 L 464.25014 378.24 C 464.24946288001325 377.97477439693324 464.3541894303286 377.720146023686 464.54127470109 377.53214554369276 C 464.72835997185143 377.34414506369944 464.9824742506829 377.2381771813131 465.2477 377.23756000000003 L 465.25014 377.23756000000003 C 465.8015073912482 377.2374758363489 466.2488771856598 377.6837540484621 466.25014 378.23512000000005 L 466.34267 414.62232000000006 C 466.34334711998673 414.8875456030668 466.2386205696714 415.14217397631404 466.05153529891 415.3301744563073 C 465.86445002814855 415.5181749363006 465.6103357493171 415.62414281868695 465.34511 415.62476000000004 Z" stroke-linecap="round" />
</g>
		<g transform="matrix(1 0 0 1 -134.75 -26.65)"  >
<path style="stroke: none; stroke-width: 1; stroke-dasharray: none; stroke-linecap: butt; stroke-dashoffset: 0; stroke-linejoin: miter; stroke-miterlimit: 4; fill: rgb(204,204,204); fill-rule: nonzero; opacity: 1;" vector-effect="non-scaling-stroke"  transform=" translate(-465.25, -423.35)" d="M 478.27626 434.54075 L 452.22425999999996 434.54075 C 449.74013916495096 434.5379504415061 447.72705955849386 432.524870835049 447.72425999999996 430.04075 L 447.72425999999996 416.6594 C 447.72705955849386 414.175279164951 449.74013916495096 412.1621995584939 452.22425999999996 412.1594 L 478.27626 412.1594 C 480.760380835049 412.1621995584939 482.7734604415061 414.175279164951 482.77626 416.6594 L 482.77626 430.04075 C 482.7734604415061 432.524870835049 480.760380835049 434.5379504415061 478.27626 434.54075 Z" stroke-linecap="round" />
</g>
		<g transform="matrix(1 0 0 1 -192.56 -84.48)"  >
<path style="stroke: none; stroke-width: 1; stroke-dasharray: none; stroke-linecap: butt; stroke-dashoffset: 0; stroke-linejoin: miter; stroke-miterlimit: 4; fill: rgb(63,61,86); fill-rule: nonzero; opacity: 1;" vector-effect="non-scaling-stroke"  transform=" translate(-407.44, -365.52)" d="M 435.15761 366.52073 L 379.72414 366.52073 C 379.1718552501692 366.52073 378.72414 366.0730147498308 378.72414 365.52073 C 378.72414 364.9684452501692 379.1718552501692 364.52073 379.72414 364.52073 L 435.15761 364.52073 C 435.70989474983077 364.52073 436.15761 364.9684452501692 436.15761 365.52073 C 436.15761 366.0730147498308 435.70989474983077 366.52073 435.15761 366.52073 Z" stroke-linecap="round" />
</g>
		<g transform="matrix(1 0 0 1 -134.75 -116.07)"  >
<path style="stroke: none; stroke-width: 1; stroke-dasharray: none; stroke-linecap: butt; stroke-dashoffset: 0; stroke-linejoin: miter; stroke-miterlimit: 4; fill: rgb(63,61,86); fill-rule: nonzero; opacity: 1;" vector-effect="non-scaling-stroke"  transform=" translate(-465.25, -333.93)" d="M 465.25014 352.23753 C 464.69786668767057 352.2375023884052 464.2501676115948 351.7898033123294 464.25014 351.23753 L 464.25014 316.62473 C 464.25014 316.0724452501692 464.6978552501692 315.62473 465.25014 315.62473 C 465.8024247498308 315.62473 466.25014 316.0724452501692 466.25014 316.62473 L 466.25014 351.23753 C 466.2501068667204 351.7898010249948 465.8024110249948 352.2374968667204 465.25014 352.23753 Z" stroke-linecap="round" />
</g>
		<g transform="matrix(1 0 0 1 -268.75 -100.42)"  >
<path style="stroke: none; stroke-width: 1; stroke-dasharray: none; stroke-linecap: butt; stroke-dashoffset: 0; stroke-linejoin: miter; stroke-miterlimit: 4; fill: rgb(63,61,86); fill-rule: nonzero; opacity: 1;" vector-effect="non-scaling-stroke"  transform=" translate(-331.25, -349.57)" d="M 358.15675 366.52073 C 357.9776402180637 366.5208023382345 357.8018275659873 366.4725575859944 357.64784 366.38108 L 303.83277999999996 334.48508 C 303.3592004638105 334.20277284647915 303.20341995074074 333.5904467707361 303.48451234946026 333.11614521116815 C 303.7656047481797 332.64184365160014 304.3775295329524 332.48449420270344 304.85254999999995 332.76437 L 358.66761999999994 364.66037 C 359.0552636577333 364.8901963283582 359.24131258179324 365.3508956786557 359.1219768563417 365.7854606694435 C 359.00264113089014 366.2200256602314 358.60740242019466 366.52109783608995 358.15674999999993 366.52072 Z" stroke-linecap="round" />
</g>
		<g transform="matrix(1 0 0 1 -268.75 -68.53)"  >
<path style="stroke: none; stroke-width: 1; stroke-dasharray: none; stroke-linecap: butt; stroke-dashoffset: 0; stroke-linejoin: miter; stroke-miterlimit: 4; fill: rgb(63,61,86); fill-rule: nonzero; opacity: 1;" vector-effect="non-scaling-stroke"  transform=" translate(-331.25, -381.47)" d="M 304.34364 398.41673 C 303.89298266184056 398.41711093908583 303.4977388393082 398.1160350271141 303.37840457949693 397.681464531122 C 303.25907031968563 397.24689403512986 303.44512760089356 396.78619123274086 303.83278 396.55636999999996 L 357.64784000000003 364.66036999999994 C 358.122998184517 364.37876552890873 358.73647552890884 364.535671815483 359.01808000000005 365.01082999999994 C 359.29968447109127 365.4859881845169 359.142778184517 366.09946552890875 358.66762000000006 366.38106999999997 L 304.85255000000006 398.27707 C 304.69856167450075 398.36854695592103 304.5227501159831 398.41679486274654 304.34364 398.41673 Z" stroke-linecap="round" />
</g>
		<g transform="matrix(1 0 0 1 -230.97 -84.87)"  >
<path style="stroke: none; stroke-width: 1; stroke-dasharray: none; stroke-linecap: butt; stroke-dashoffset: 0; stroke-linejoin: miter; stroke-miterlimit: 4; fill: rgb(204,204,204); fill-rule: nonzero; opacity: 1;" vector-effect="non-scaling-stroke"  transform=" translate(-369.03, -365.12)" d="M 375.72414 382.65061 L 362.34267 382.65061 C 359.8585309132117 382.6478544355203 357.8454255644797 380.63474908678825 357.84267 378.15061 L 357.84267 352.09886 C 357.8454255644797 349.6147209132117 359.8585309132117 347.6016155644797 362.34267 347.59886 L 375.72414 347.59886 C 378.20827908678825 347.6016155644797 380.2213844355203 349.6147209132117 380.22414 352.09886 L 380.22414 378.15061000000003 C 380.2213844355203 380.6347490867883 378.20827908678825 382.6478544355203 375.72414 382.65061 Z" stroke-linecap="round" />
</g>
		<g transform="matrix(1 0 0 1 -134.75 -141.88)"  >
<path style="stroke: none; stroke-width: 1; stroke-dasharray: none; stroke-linecap: butt; stroke-dashoffset: 0; stroke-linejoin: miter; stroke-miterlimit: 4; fill: rgb(204,204,204); fill-rule: nonzero; opacity: 1;" vector-effect="non-scaling-stroke"  transform=" translate(-465.25, -308.12)" d="M 478.27626 319.31565 L 452.22425999999996 319.31565 C 449.74013916495096 319.3128504415061 447.72705955849386 317.299770835049 447.72425999999996 314.81565 L 447.72425999999996 301.43382 C 447.72705955849386 298.949699164951 449.74013916495096 296.93661955849393 452.22425999999996 296.93382 L 478.27626 296.93382 C 480.760380835049 296.93661955849393 482.7734604415061 298.949699164951 482.77626 301.43382 L 482.77626 314.81565 C 482.7734604415061 317.299770835049 480.760380835049 319.3128504415061 478.27626 319.31565 Z" stroke-linecap="round" />
</g>
		<g transform="matrix(1 0 0 1 -305.97 -115.87)"  >
<path style="stroke: none; stroke-width: 1; stroke-dasharray: none; stroke-linecap: butt; stroke-dashoffset: 0; stroke-linejoin: miter; stroke-miterlimit: 4; fill: rgb(204,204,204); fill-rule: nonzero; opacity: 1;" vector-effect="non-scaling-stroke"  transform=" translate(-294.03, -334.12)" d="M 300.72414 351.65061 L 287.34267 351.65061 C 284.8585309132117 351.6478544355203 282.8454255644797 349.63474908678825 282.84267 347.15061 L 282.84267 321.09886 C 282.8454255644797 318.6147209132117 284.8585309132117 316.6016155644797 287.34267 316.59886 L 300.72414 316.59886 C 303.20827908678825 316.6016155644797 305.2213844355203 318.6147209132117 305.22414 321.09886 L 305.22414 347.15061000000003 C 305.2213844355203 349.6347490867883 303.20827908678825 351.6478544355203 300.72414 351.65061 Z" stroke-linecap="round" />
</g>
		<g transform="matrix(1 0 0 1 -305.97 -52.87)"  >
<path style="stroke: none; stroke-width: 1; stroke-dasharray: none; stroke-linecap: butt; stroke-dashoffset: 0; stroke-linejoin: miter; stroke-miterlimit: 4; fill: rgb(204,204,204); fill-rule: nonzero; opacity: 1;" vector-effect="non-scaling-stroke"  transform=" translate(-294.03, -397.12)" d="M 300.72414 414.65061 L 287.34267 414.65061 C 284.8585309132117 414.6478544355203 282.8454255644797 412.63474908678825 282.84267 410.15061 L 282.84267 384.09886 C 282.8454255644797 381.6147209132117 284.8585309132117 379.6016155644797 287.34267 379.59886 L 300.72414 379.59886 C 303.20827908678825 379.6016155644797 305.2213844355203 381.6147209132117 305.22414 384.09886 L 305.22414 410.15061000000003 C 305.2213844355203 412.6347490867883 303.20827908678825 414.6478544355203 300.72414 414.65061 Z" stroke-linecap="round" />
</g>
		<g transform="matrix(1 0 0 1 -76.94 -84.48)"  >
<path style="stroke: none; stroke-width: 1; stroke-dasharray: none; stroke-linecap: butt; stroke-dashoffset: 0; stroke-linejoin: miter; stroke-miterlimit: 4; fill: rgb(63,61,86); fill-rule: nonzero; opacity: 1;" vector-effect="non-scaling-stroke"  transform=" translate(-523.06, -365.52)" d="M 550.77626 366.52073 L 495.34267 366.52073 C 494.7903852501692 366.52073 494.34267 366.0730147498308 494.34267 365.52073 C 494.34267 364.9684452501692 494.7903852501692 364.52073 495.34267 364.52073 L 550.77626 364.52073 C 551.3285447498308 364.52073 551.77626 364.9684452501692 551.77626 365.52073 C 551.77626 366.0730147498308 551.3285447498308 366.52073 550.77626 366.52073 Z" stroke-linecap="round" />
</g>
		<g transform="matrix(1 0 0 1 -0.75 -100.43)"  >
<path style="stroke: none; stroke-width: 1; stroke-dasharray: none; stroke-linecap: butt; stroke-dashoffset: 0; stroke-linejoin: miter; stroke-miterlimit: 4; fill: rgb(63,61,86); fill-rule: nonzero; opacity: 1;" vector-effect="non-scaling-stroke"  transform=" translate(-599.25, -349.57)" d="M 572.34364 366.52073 C 571.8929302574181 366.5211974730211 571.4976067134601 366.2201024644477 571.3782840284589 365.7854743620045 C 571.2589613434577 365.35084625956125 571.4451314219654 364.89010814472385 571.8329 364.66038000000003 L 625.64784 332.76438 C 625.9552152366055 332.5822585065605 626.3364023280765 332.577954043365 626.647811786273 332.75308806003983 C 626.9592212444695 332.92822207671463 627.1535425646819 333.25618754992547 627.157576786273 333.6134430600398 C 627.161611007864 333.9706985701542 626.9747452366055 334.3029685065605 626.66737 334.48509 L 572.85243 366.38109000000003 C 572.6984846462855 366.4725625518773 572.5227109192482 366.5208045441403 572.34364 366.52073 Z" stroke-linecap="round" />
</g>
		<g transform="matrix(1 0 0 1 -0.75 -68.53)"  >
<path style="stroke: none; stroke-width: 1; stroke-dasharray: none; stroke-linecap: butt; stroke-dashoffset: 0; stroke-linejoin: miter; stroke-miterlimit: 4; fill: rgb(63,61,86); fill-rule: nonzero; opacity: 1;" vector-effect="non-scaling-stroke"  transform=" translate(-599.25, -381.47)" d="M 626.15663 398.41673 C 625.9775587468223 398.41679706690434 625.8017861140148 398.36855192023955 625.64784 398.27707999999996 L 571.8329 366.38107999999994 C 571.3577418154831 366.0995445645024 571.2007795645025 365.4861231845168 571.482315 365.0109649999999 C 571.7638504354975 364.535806815483 572.3772718154831 364.3788445645024 572.85243 364.6603799999999 L 626.66737 396.55637999999993 C 627.0551489352475 396.78610398430493 627.2413271307804 397.24684824210146 627.1220032445277 397.6814830563493 C 627.002679358275 398.1161178705972 626.6073465249524 398.41721510153997 626.15663 398.41673999999995 Z" stroke-linecap="round" />
</g>
		<g transform="matrix(1 0 0 1 -38.53 -84.87)"  >
<path style="stroke: none; stroke-width: 1; stroke-dasharray: none; stroke-linecap: butt; stroke-dashoffset: 0; stroke-linejoin: miter; stroke-miterlimit: 4; fill: rgb(204,204,204); fill-rule: nonzero; opacity: 1;" vector-effect="non-scaling-stroke"  transform=" translate(-561.47, -365.12)" d="M 568.15761 382.65061 L 554.77626 382.65061 C 552.292139164951 382.64781044150607 550.2790595584938 380.63473083504897 550.27626 378.15061 L 550.27626 352.09886 C 550.2790595584938 349.614739164951 552.292139164951 347.6016595584939 554.77626 347.59886 L 568.15761 347.59886 C 570.641730835049 347.6016595584939 572.6548104415061 349.614739164951 572.65761 352.09886 L 572.65761 378.15061000000003 C 572.654810441506 380.634730835049 570.641730835049 382.64781044150607 568.15761 382.65061 Z" stroke-linecap="round" />
</g>
		<g transform="matrix(1 0 0 1 36.47 -115.87)"  >
<path style="stroke: none; stroke-width: 1; stroke-dasharray: none; stroke-linecap: butt; stroke-dashoffset: 0; stroke-linejoin: miter; stroke-miterlimit: 4; fill: rgb(204,204,204); fill-rule: nonzero; opacity: 1;" vector-effect="non-scaling-stroke"  transform=" translate(-636.47, -334.12)" d="M 643.15761 351.65061 L 629.77626 351.65061 C 627.292139164951 351.64781044150607 625.2790595584938 349.63473083504897 625.27626 347.15061 L 625.27626 321.09886 C 625.2790595584938 318.614739164951 627.292139164951 316.6016595584939 629.77626 316.59886 L 643.15761 316.59886 C 645.641730835049 316.6016595584939 647.6548104415061 318.614739164951 647.65761 321.09886 L 647.65761 347.15061000000003 C 647.654810441506 349.634730835049 645.641730835049 351.64781044150607 643.15761 351.65061 Z" stroke-linecap="round" />
</g>
		<g transform="matrix(1 0 0 1 36.47 -52.87)"  >
<path style="stroke: none; stroke-width: 1; stroke-dasharray: none; stroke-linecap: butt; stroke-dashoffset: 0; stroke-linejoin: miter; stroke-miterlimit: 4; fill: rgb(204,204,204); fill-rule: nonzero; opacity: 1;" vector-effect="non-scaling-stroke"  transform=" translate(-636.47, -397.12)" d="M 643.15761 414.65061 L 629.77626 414.65061 C 627.292139164951 414.64781044150607 625.2790595584938 412.63473083504897 625.27626 410.15061 L 625.27626 384.09886 C 625.2790595584938 381.614739164951 627.292139164951 379.6016595584939 629.77626 379.59886 L 643.15761 379.59886 C 645.641730835049 379.6016595584939 647.6548104415061 381.614739164951 647.65761 384.09886 L 647.65761 410.15061000000003 C 647.654810441506 412.634730835049 645.641730835049 414.64781044150607 643.15761 414.65061 Z" stroke-linecap="round" />
</g>
		<g transform="matrix(1 0 0 1 -192.75 24.35)"  >
<path style="stroke: none; stroke-width: 1; stroke-dasharray: none; stroke-linecap: butt; stroke-dashoffset: 0; stroke-linejoin: miter; stroke-miterlimit: 4; fill: rgb(204,204,204); fill-rule: nonzero; opacity: 1;" vector-effect="non-scaling-stroke"  transform=" translate(-407.25, -474.35)" d="M 420.27614 485.54075 L 394.22414 485.54075 C 391.7400009132117 485.5379944355203 389.72689556447966 483.5248890867883 389.72414 481.04075 L 389.72414 467.6594 C 389.72689556447966 465.17526091321173 391.7400009132117 463.1621555644797 394.22414 463.1594 L 420.27614 463.1594 C 422.7602790867883 463.1621555644797 424.7733844355203 465.17526091321173 424.77614 467.6594 L 424.77614 481.04075 C 424.7733844355203 483.5248890867883 422.7602790867883 485.5379944355203 420.27614 485.54075 Z" stroke-linecap="round" />
</g>
		<g transform="matrix(1 0 0 1 -76.93 24.35)"  >
<path style="stroke: none; stroke-width: 1; stroke-dasharray: none; stroke-linecap: butt; stroke-dashoffset: 0; stroke-linejoin: miter; stroke-miterlimit: 4; fill: rgb(204,204,204); fill-rule: nonzero; opacity: 1;" vector-effect="non-scaling-stroke"  transform=" translate(-523.07, -474.35)" d="M 536.0912 485.54075 L 510.03919999999994 485.54075 C 507.55507916495094 485.5379504415061 505.54199955849384 483.524870835049 505.53919999999994 481.04075 L 505.53919999999994 467.6594 C 505.54199955849384 465.175279164951 507.55507916495094 463.1621995584939 510.03919999999994 463.1594 L 536.0912 463.1594 C 538.575320835049 463.1621995584939 540.5884004415061 465.175279164951 540.5912 467.6594 L 540.5912 481.04075 C 540.5884004415061 483.524870835049 538.575320835049 485.5379504415061 536.0912 485.54075 Z" stroke-linecap="round" />
</g>
		<g transform="matrix(1 0 0 1 -129.93 73.35)"  >
<path style="stroke: none; stroke-width: 1; stroke-dasharray: none; stroke-linecap: butt; stroke-dashoffset: 0; stroke-linejoin: miter; stroke-miterlimit: 4; fill: rgb(204,204,204); fill-rule: nonzero; opacity: 1;" vector-effect="non-scaling-stroke"  transform=" translate(-470.07, -523.35)" d="M 483.0912 534.54075 L 457.0392 534.54075 C 454.555079164951 534.5379504415062 452.5419995584939 532.524870835049 452.5392 530.04075 L 452.5392 516.6594 C 452.5419995584939 514.175279164951 454.555079164951 512.1621995584939 457.0392 512.1594 L 483.0912 512.1594 C 485.575320835049 512.1621995584939 487.5884004415061 514.175279164951 487.5912 516.6594 L 487.5912 530.04075 C 487.5884004415061 532.524870835049 485.575320835049 534.5379504415062 483.0912 534.54075 Z" stroke-linecap="round" />
</g>
		<g transform="matrix(1 0 0 1 -18.93 73.35)"  >
<path style="stroke: none; stroke-width: 1; stroke-dasharray: none; stroke-linecap: butt; stroke-dashoffset: 0; stroke-linejoin: miter; stroke-miterlimit: 4; fill: rgb(204,204,204); fill-rule: nonzero; opacity: 1;" vector-effect="non-scaling-stroke"  transform=" translate(-581.07, -523.35)" d="M 594.0912 534.54075 L 568.0391999999999 534.54075 C 565.5550791649509 534.5379504415062 563.5419995584938 532.524870835049 563.5391999999999 530.04075 L 563.5391999999999 516.6594 C 563.5419995584938 514.175279164951 565.5550791649509 512.1621995584939 568.0391999999999 512.1594 L 594.0912 512.1594 C 596.575320835049 512.1621995584939 598.5884004415061 514.175279164951 598.5912 516.6594 L 598.5912 530.04075 C 598.5884004415061 532.524870835049 596.575320835049 534.5379504415062 594.0912 534.54075 Z" stroke-linecap="round" />
</g>
		<g transform="matrix(1 0 0 1 -76.93 73.35)"  >
<path style="stroke: none; stroke-width: 1; stroke-dasharray: none; stroke-linecap: butt; stroke-dashoffset: 0; stroke-linejoin: miter; stroke-miterlimit: 4; fill: rgb(204,204,204); fill-rule: nonzero; opacity: 1;" vector-effect="non-scaling-stroke"  transform=" translate(-523.07, -523.35)" d="M 536.0912 534.54075 L 510.03919999999994 534.54075 C 507.55507916495094 534.5379504415062 505.54199955849384 532.524870835049 505.53919999999994 530.04075 L 505.53919999999994 516.6594 C 505.54199955849384 514.175279164951 507.55507916495094 512.1621995584939 510.03919999999994 512.1594 L 536.0912 512.1594 C 538.575320835049 512.1621995584939 540.5884004415061 514.175279164951 540.5912 516.6594 L 540.5912 530.04075 C 540.5884004415061 532.524870835049 538.575320835049 534.5379504415062 536.0912 534.54075 Z" stroke-linecap="round" />
</g>
		<g transform="matrix(1 0 0 1 -134.75 -84.48)"  >
<path style="stroke: none; stroke-width: 1; stroke-dasharray: none; stroke-linecap: butt; stroke-dashoffset: 0; stroke-linejoin: miter; stroke-miterlimit: 4; fill: rgb(3,169,243); fill-rule: nonzero; opacity: 1;" vector-effect="non-scaling-stroke"  transform=" translate(-465.25, -365.52)" d="M 496.91933 382.91673 L 433.581 382.91673 C 431.096879164951 382.91393044150607 429.0837995584939 380.90085083504897 429.081 378.41673 L 429.081 352.62473 C 429.0837995584939 350.140609164951 431.096879164951 348.1275295584939 433.581 348.12473 L 496.91938000000005 348.12473 C 499.40350083504904 348.1275295584939 501.41658044150614 350.140609164951 501.41938000000005 352.62473 L 501.41938000000005 378.41673000000003 C 501.41658038861686 380.9008703302829 499.4034703612361 382.91395799002294 496.91933 382.91673 Z" stroke-linecap="round" />
</g>
</g>
</g>
<g transform="matrix(14.93 0 0 14.93 540 540)" id="bad38ec5-46d0-4a77-a8e3-73a074107207"  >
<circle style="stroke: rgb(0,0,0); stroke-width: 0; stroke-dasharray: none; stroke-linecap: butt; stroke-dashoffset: 0; stroke-linejoin: miter; stroke-miterlimit: 4; fill: rgb(3,169,243); fill-rule: nonzero; opacity: 0.15;" vector-effect="non-scaling-stroke"  cx="0" cy="0" r="35" />
</g>
<g transform="matrix(1.13 0 0 1.13 347.42 419.95)"  >
<path style="stroke: rgb(204,204,204); stroke-width: 2; stroke-dasharray: none; stroke-linecap: butt; stroke-dashoffset: 0; stroke-linejoin: miter; stroke-miterlimit: 4; fill: rgb(47,46,65); fill-rule: nonzero; opacity: 1;" vector-effect="non-scaling-stroke"  transform=" translate(-50, -50)" d="M 17.54 46.118 L 23.487 46.118 L 23.487 39.951 C 23.487 38.961 23.487 38.023 23.596999999999998 37.088 L 23.651999999999997 36.923 L 23.651999999999997 36.813 L 23.706999999999997 36.536 L 23.706999999999997 36.206 L 23.761999999999997 35.931000000000004 L 23.816999999999997 35.656000000000006 L 23.816999999999997 35.601000000000006 L 23.871999999999996 35.32600000000001 L 23.871999999999996 35.27100000000001 L 23.926999999999996 35.05100000000001 L 23.926999999999996 34.94100000000001 L 24.093999999999998 34.27900000000001 L 24.093999999999998 34.16900000000001 L 24.147 33.94900000000001 L 24.147 33.89400000000001 L 24.203999999999997 33.674000000000014 L 24.203999999999997 33.619000000000014 L 24.313999999999997 33.344000000000015 L 24.368999999999996 33.01400000000002 L 24.478999999999996 32.73900000000002 L 24.478999999999996 32.682000000000016 L 24.533999999999995 32.46200000000002 L 24.533999999999995 32.40700000000002 L 24.643999999999995 32.18700000000002 L 24.643999999999995 32.07700000000002 L 24.698999999999995 31.91200000000002 L 24.753999999999994 31.74700000000002 L 24.808999999999994 31.63700000000002 L 24.863999999999994 31.472000000000023 L 24.863999999999994 31.362000000000023 L 24.973999999999993 31.142000000000024 L 25.193999999999992 30.535000000000025 L 25.30399999999999 30.260000000000026 L 25.41399999999999 29.985000000000028 L 25.41399999999999 29.930000000000028 L 25.68899999999999 29.325000000000028 L 25.74399999999999 29.21500000000003 L 25.79899999999999 29.05000000000003 C 25.963999999999988 28.77500000000003 26.073999999999987 28.44300000000003 26.24099999999999 28.168000000000028 L 26.35099999999999 27.89300000000003 C 27.61599999999999 25.41600000000003 29.267999999999986 23.15800000000003 31.25099999999999 21.17600000000003 C 34.99599999999999 17.43100000000003 39.89599999999999 14.78900000000003 45.29299999999999 13.85200000000003 L 45.62299999999999 13.79700000000003 L 45.95299999999999 13.742000000000031 L 46.28299999999999 13.687000000000031 L 46.612999999999985 13.632000000000032 L 46.944999999999986 13.577000000000032 L 47.274999999999984 13.522000000000032 L 47.60499999999998 13.522000000000032 L 47.93499999999998 13.467000000000033 L 48.649999999999984 13.467000000000033 L 48.981999999999985 13.412000000000033 L 51.01999999999998 13.412000000000033 L 51.34999999999998 13.467000000000033 L 52.01099999999998 13.467000000000033 L 52.34099999999998 13.522000000000032 L 52.67099999999998 13.522000000000032 L 53.000999999999976 13.577000000000032 L 53.330999999999975 13.632000000000032 L 53.66099999999997 13.687000000000031 L 53.99099999999997 13.742000000000031 L 54.32099999999997 13.79700000000003 L 54.65099999999997 13.85200000000003 C 60.102999999999966 14.78900000000003 64.94799999999996 17.43200000000003 68.69199999999996 21.17600000000003 L 68.74999999999997 21.17600000000003 C 69.95999999999997 22.38600000000003 71.00699999999998 23.70800000000003 71.99699999999997 25.14000000000003 L 71.99699999999997 25.19500000000003 C 72.43699999999997 25.80000000000003 72.87699999999997 26.517000000000028 73.26499999999997 27.177000000000028 L 73.37399999999997 27.452000000000027 L 73.59499999999997 27.892000000000028 L 73.87099999999997 28.38700000000003 L 73.87099999999997 28.44200000000003 L 73.92499999999997 28.49700000000003 L 74.14499999999997 28.994000000000028 L 74.14499999999997 29.049000000000028 L 74.25499999999997 29.214000000000027 L 74.31199999999997 29.324000000000026 C 74.42199999999997 29.654000000000025 74.58499999999997 29.929000000000027 74.69499999999996 30.259000000000025 L 74.80499999999996 30.534000000000024 L 74.91499999999996 30.866000000000025 L 74.97199999999997 31.086000000000023 L 75.02499999999996 31.141000000000023 L 75.08299999999997 31.361000000000022 L 75.24599999999997 31.746000000000024 L 75.24599999999997 31.911000000000023 L 75.41299999999997 32.40600000000002 L 75.46599999999997 32.46100000000002 L 75.52299999999997 32.68100000000002 L 75.52299999999997 32.73800000000002 L 75.63299999999997 33.23300000000002 L 75.74299999999997 33.56300000000002 L 75.74299999999997 33.673000000000016 L 75.79999999999997 33.893000000000015 L 75.85299999999997 34.058000000000014 L 75.91099999999997 34.33300000000001 L 76.01999999999997 34.77500000000001 L 76.01999999999997 34.94000000000001 L 76.07399999999997 35.05000000000001 L 76.13099999999997 35.27000000000001 L 76.13099999999997 35.49000000000001 L 76.24099999999997 35.93000000000001 L 76.24099999999997 36.260000000000005 L 76.29399999999997 36.535000000000004 L 76.29399999999997 36.59 L 76.35099999999997 36.812000000000005 C 76.35099999999997 37.087 76.40499999999997 37.362 76.40499999999997 37.58200000000001 L 76.40499999999997 37.69200000000001 C 76.51399999999997 38.46300000000001 76.51399999999997 39.17900000000001 76.51399999999997 39.95000000000001 L 76.51399999999997 46.11700000000001 L 82.46299999999997 46.11700000000001 L 82.46299999999997 86.58800000000001 L 17.54 86.58800000000001 L 17.54 46.118 z M 34.113 46.118 L 65.832 46.118 L 65.832 39.951 C 65.832 39.18 65.77499999999999 38.409 65.66499999999999 37.638 L 65.612 37.418 L 65.612 37.253 L 65.55399999999999 37.143 L 65.55399999999999 36.978 L 65.50099999999999 36.923 L 65.44399999999999 36.591 L 65.44399999999999 36.426 L 65.38999999999999 36.371 L 65.38999999999999 36.206 L 65.33299999999998 36.096000000000004 L 65.27999999999999 35.876000000000005 L 65.22199999999998 35.656000000000006 L 65.22199999999998 35.601000000000006 L 65.16499999999998 35.43600000000001 L 65.11199999999998 35.32600000000001 L 65.11199999999998 35.21600000000001 L 65.00199999999998 34.88600000000001 L 64.94499999999998 34.71900000000001 L 64.89099999999998 34.71900000000001 L 64.89099999999998 34.55400000000001 L 64.78199999999998 34.33400000000001 L 64.78199999999998 34.27900000000001 L 64.72399999999998 34.22400000000001 L 64.67099999999998 34.05900000000001 L 64.61399999999998 33.94900000000001 L 64.50399999999998 33.72900000000001 L 64.50399999999998 33.619000000000014 L 64.45099999999998 33.564000000000014 L 64.39299999999997 33.454000000000015 L 64.33999999999997 33.289000000000016 L 64.33999999999997 33.234000000000016 C 64.17299999999997 32.95900000000002 64.06299999999997 32.682000000000016 63.89999999999998 32.40700000000002 C 63.67999999999998 32.07700000000002 63.51299999999998 31.747000000000018 63.293999999999976 31.41700000000002 L 63.239999999999974 31.30700000000002 L 63.126999999999974 31.14200000000002 L 63.07299999999997 31.08700000000002 L 63.07299999999997 31.03200000000002 L 62.90599999999997 30.812000000000022 C 62.52299999999997 30.260000000000023 62.13599999999997 29.82000000000002 61.69599999999997 29.325000000000024 C 61.53299999999997 29.105000000000025 61.36599999999997 28.940000000000023 61.14599999999997 28.775000000000023 L 61.14599999999997 28.720000000000024 C 61.03599999999997 28.610000000000024 60.86899999999997 28.498000000000022 60.75899999999997 28.333000000000023 L 60.64899999999997 28.223000000000024 L 60.595999999999975 28.223000000000024 L 60.485999999999976 28.113000000000024 C 58.88799999999998 26.683000000000025 56.961999999999975 25.581000000000024 54.866999999999976 24.865000000000023 L 54.70399999999998 24.810000000000024 L 54.48399999999998 24.755000000000024 L 54.31699999999998 24.700000000000024 L 54.09599999999998 24.645000000000024 L 53.932999999999986 24.590000000000025 L 53.71299999999999 24.590000000000025 L 53.545999999999985 24.535000000000025 L 53.38299999999999 24.480000000000025 L 53.16299999999999 24.423000000000027 L 52.99599999999999 24.368000000000027 L 52.78 24.368000000000027 L 52.614000000000004 24.313000000000027 L 52.39300000000001 24.313000000000027 L 52.17300000000001 24.258000000000028 L 52.01000000000001 24.258000000000028 L 51.789000000000016 24.203000000000028 L 51.62400000000002 24.203000000000028 L 51.40300000000002 24.148000000000028 L 50.57600000000002 24.148000000000028 L 50.41100000000002 24.09300000000003 L 49.58600000000002 24.09300000000003 L 49.36600000000002 24.148000000000028 L 48.59400000000002 24.148000000000028 L 48.374000000000024 24.203000000000028 L 48.154000000000025 24.203000000000028 L 47.989000000000026 24.258000000000028 L 47.76900000000003 24.258000000000028 L 47.60400000000003 24.313000000000027 L 47.38400000000003 24.313000000000027 L 47.16400000000003 24.368000000000027 L 47 24.368000000000027 L 46.778 24.423000000000027 L 46.613 24.480000000000025 L 46.448 24.535000000000025 L 46.228 24.590000000000025 L 46.063 24.590000000000025 L 45.843 24.645000000000024 L 45.678000000000004 24.700000000000024 L 45.458000000000006 24.755000000000024 L 45.293000000000006 24.810000000000024 L 45.12800000000001 24.865000000000023 L 44.90800000000001 24.920000000000023 L 44.74100000000001 25.030000000000022 L 44.57600000000001 25.085000000000022 C 42.92600000000001 25.690000000000023 41.43800000000001 26.51700000000002 40.06100000000001 27.617000000000022 L 39.95100000000001 27.72700000000002 L 39.78600000000001 27.83700000000002 L 39.62100000000001 27.94700000000002 L 39.62100000000001 28.00200000000002 L 39.51100000000001 28.11200000000002 L 39.34600000000001 28.22200000000002 L 39.23600000000001 28.33200000000002 L 38.796000000000014 28.71900000000002 L 38.796000000000014 28.77400000000002 C 38.189000000000014 29.37900000000002 37.58400000000001 30.09400000000002 37.088000000000015 30.81200000000002 L 36.868000000000016 31.087000000000018 L 36.81300000000002 31.197000000000017 L 36.75800000000002 31.252000000000017 L 36.70300000000002 31.307000000000016 L 36.64800000000002 31.417000000000016 L 36.371000000000016 31.912000000000017 L 36.31600000000002 32.02200000000002 L 36.26100000000002 32.07700000000002 L 36.20600000000002 32.13200000000002 L 36.15100000000002 32.24200000000002 L 36.15100000000002 32.29700000000002 L 36.09600000000002 32.40700000000002 L 35.98600000000002 32.57200000000002 L 35.71100000000002 33.12400000000002 L 35.54600000000002 33.509000000000015 L 35.49100000000002 33.564000000000014 L 35.49100000000002 33.619000000000014 L 35.43600000000002 33.674000000000014 L 35.32600000000002 33.94900000000001 L 35.32600000000002 34.00400000000001 L 35.21600000000002 34.27900000000001 L 35.21600000000002 34.33400000000001 L 35.16100000000002 34.44400000000001 L 35.10600000000002 34.49900000000001 L 35.10600000000002 34.55400000000001 L 35.05100000000002 34.71900000000001 L 34.99600000000002 34.88600000000001 L 34.941000000000024 35.05100000000001 L 34.886000000000024 35.16100000000001 L 34.886000000000024 35.27100000000001 L 34.831000000000024 35.32600000000001 L 34.831000000000024 35.43600000000001 L 34.776000000000025 35.49100000000001 L 34.776000000000025 35.656000000000006 L 34.721000000000025 35.821000000000005 L 34.666000000000025 35.986000000000004 L 34.611000000000026 36.096000000000004 L 34.501000000000026 36.591 L 34.501000000000026 36.756 L 34.444000000000024 36.923 L 34.444000000000024 36.978 C 34.39100000000003 37.198 34.334000000000024 37.473 34.334000000000024 37.693000000000005 C 34.224000000000025 38.464000000000006 34.169000000000025 39.18000000000001 34.169000000000025 39.95100000000001 L 34.114000000000026 39.95100000000001 L 34.114000000000026 46.118 z M 47.385 64.618 L 47.22 66.216 L 47.165 67.37299999999999 C 46.945 70.07 46.668 73.20799999999998 46.338 77.00999999999999 L 53.661 77.00999999999999 C 53.331 73.20799999999998 53.057 70.071 52.834 67.37299999999999 L 52.724000000000004 66.216 L 52.615 64.618 L 52.615 64.565 C 54.049 63.626999999999995 54.986000000000004 62.086999999999996 54.986000000000004 60.269999999999996 C 54.986000000000004 57.51499999999999 52.781000000000006 55.257999999999996 50.083000000000006 55.202 L 49.918000000000006 55.202 C 47.165000000000006 55.259 44.96300000000001 57.515 44.96300000000001 60.269999999999996 C 44.96300000000001 62.086999999999996 45.95300000000001 63.626999999999995 47.385000000000005 64.565 L 47.385000000000005 64.618 z" stroke-linecap="round" />
</g>
</svg>